# xmcd
# 
# Track frame offsets:
#     150
#     17005
#     38800
#     50980
#     71327
#     88619
#     102414
#     116906
#     127773
#     143496
#     164136
#     195320
#     211136
#     222044
#     237767
#     252946
#     278405
#     299164
# 
# Disc length: 4195
# 
# Revision: 5
# Processed by: cddbd v1.5.2PL0 Copyright (c) Steve Scherf et al.
# Submitted via: fre:ac v1.0.17
# 
DISCID=08106112
DTITLE=Fleetwood Mac - Then Play On
DYEAR=1969
DGENRE=Rock
TTITLE0=Coming Your Way
TTITLE1=Closing My Eyes
TTITLE2=Fighting For Madge
TTITLE3=When You Say
TTITLE4=Show-Biz Blues
TTITLE5=Under Way
TTITLE6=One Sunny Day
TTITLE7=Although The Sun Is Shining
TTITLE8=Rattlesnake Shake
TTITLE9=Without You
TTITLE10=Searching For Madge
TTITLE11=My Dream
TTITLE12=Like Crying
TTITLE13=Before The Beginning
TTITLE14=Oh Well - Pt 1 (Mono Single A-side)
TTITLE15=Oh Well - Pt 2 (Mono Single B-side)
TTITLE16=The Green Manalishi (With the Two Prong Crown) (Single A-side)
TTITLE17=World in Harmony (B-side of ''Green Manalishi'')
EXTD=
EXTT0=
EXTT1=
EXTT2=
EXTT3=
EXTT4=
EXTT5=
EXTT6=
EXTT7=
EXTT8=
EXTT9=
EXTT10=
EXTT11=
EXTT12=
EXTT13=
EXTT14=
EXTT15=
EXTT16=
EXTT17=
PLAYORDER=
